<?xml version="1.0" encoding="UTF-8" standalone="no"?>
<svg xmlns="http://www.w3.org/2000/svg" viewBox="60 0 1190 1250" width="1250" height="1250" role="img" aria-label="Evolve">
  <g>
    <path class="evolve-mark-arc" fill="var(--mark-arc,var(--gold,#e0a92e))" d="m 790.56302,396.75 c 0.38379,-1.2375 1.93503,-4.725 3.44719,-7.75 C 872.05781,232.86993 726.64493,55.333709 564.70344,109.03679 452.56708,146.22348 397.61127,272.55021 446.56389,380.60374 c 7.76761,17.1455 7.77369,19.25698 0.0175,6.0781 C 349.77878,222.20016 512.34905,37.127728 696.57904,102.08078 804.8024,140.23655 857.56557,263.43305 809.0249,364.63009 798.79983,385.94721 788.18695,404.41145 790.56302,396.75 Z" />
    <path class="evolve-mark-arc" fill="var(--mark-arc,var(--gold,#e0a92e))" d="M 489.5,1089.5128 C 354.16564,1047.7363 251.36189,968.13865 185.97097,854.5 113.81648,729.1074 106.76468,567.02561 168.14225,444.71653 c 6.44418,-12.84153 7.23197,-11.91554 1.4264,1.67664 -30.58647,71.60997 -38.12191,167.76459 -19.52199,249.10683 36.199,158.30754 167.32067,291.76897 332.98484,338.9267 5.20768,1.4824 12.506,3.5869 16.2185,4.6766 l 6.75,1.9814 -0.007,19.2076 c -0.0135,36.418 1.00094,34.6207 -16.49289,29.2205 z" />
    <path class="evolve-mark-arc" fill="var(--mark-arc,var(--gold,#e0a92e))" d="m 718.75,1096.4419 c -2.5829,-2.6697 2.09563,-22.0507 8.6763,-35.9419 10.86642,-22.938 26.71956,-38.6944 84.0737,-83.56075 C 887.20189,917.72004 925,867.18664 925,825.19777 v -7.42146 l -5.73376,-5.13815 c -15.85303,-14.20629 -19.63316,-20.5516 -19.684,-33.04155 -0.178,-43.72848 65.7474,-45.49009 68.20536,-1.82254 0.69461,12.34034 -5.79225,25.47543 -15.42365,31.23099 -9.94369,5.94217 -10.33496,6.67634 -20.78208,38.99494 -16.50282,51.05212 -27.29383,65.25635 -112.95318,148.68049 -34.35744,33.46091 -34.7277,34.36701 -10.12869,24.78611 211.7166,-82.4602 333.3776,-280.777 297.1043,-484.30285 -2.751,-15.43568 -2.0063,-15.9162 2.2701,-1.46476 12.3945,41.88553 15.7823,118.00111 7.5095,168.72031 -30.1579,184.89367 -176.67185,338.6269 -369.8839,388.1095 -14.33521,3.6713 -25.41573,5.2922 -26.75,3.9131 z" />
    <path class="evolve-mark-tree" fill="var(--mark-tree,var(--evolve-green,#3fb950))" d="m 603,1148.3074 c -40.09755,-6.7404 -66.92491,-45.3557 -58.57128,-84.3074 2.81748,-13.1375 9.15802,-23.7057 26.09828,-43.5 C 611.9219,972.1311 590.83423,847.10461 530.49236,783.13905 512.10314,763.64551 492.80717,750.7526 446.5,727.01823 383.61256,694.78576 364.85918,679.77235 340.67878,642.30082 c -7.0187,-10.87663 -8.41719,-12.01673 -18.19198,-14.83084 -22.79741,-6.56324 -30.12365,-28.1043 -15.28991,-44.95632 22.08077,-25.08508 56.76932,2.28685 41.46405,32.71832 -6.32399,12.57397 -5.82022,15.00685 6.19429,29.9143 21.15531,26.24926 48.68216,42.47031 106.64477,62.84373 64.33344,22.61273 102.09329,54.58995 128.13246,108.50999 l 6.27799,13 0.0314,-29 C 596.05469,696.4724 583.8183,646.12804 544.32514,588.1325 503.11245,527.61181 451.53384,491.9707 354.5,456.96228 314.59731,442.56596 296.96855,435.12233 269,420.86046 c -7.975,-4.06665 -17.72245,-8.48733 -21.661,-9.82373 l -7.16099,-2.42982 -11.33901,4.33257 C 178.14515,432.3093 134.2818,388.68307 157.59571,342.08131 183.90754,289.48706 257.1327,315.11982 254.4913,376 l -0.67249,15.5 3.11905,4.28062 c 8.02342,11.01143 38.93592,23.85583 91.06214,37.83705 143.42181,38.46841 207.85475,81.7783 253.35139,170.2952 l 9.464,18.41288 0.56026,-5.41288 C 612.691,604.20491 614.19642,451.35097 613.13772,438 c -1.71415,-21.61654 -4.73305,-28.13201 -17.14461,-37.00189 -33.03963,-23.61167 -40.58309,-32.64504 -45.94733,-55.02243 -18.76144,-78.26491 87.7684,-124.96373 132.9236,-58.26889 25.22984,37.26481 15.56868,76.95674 -25.99904,106.81451 -17.75142,12.75072 -22.50517,19.19458 -25.06668,33.9787 -1.52087,8.77795 1.36387,326.92433 3.05116,336.5 0.0485,0.275 2.47074,-4.02714 5.38285,-9.56031 19.70921,-37.44865 44.43172,-63.8191 109.16233,-116.4388 48.21019,-39.19021 69.82994,-62.23595 82.0309,-87.44149 8.91696,-18.42123 8.95381,-22.26605 0.30813,-32.14595 -23.4776,-26.82917 0.90144,-64.42232 32.26103,-49.7474 26.17214,12.24742 23.97767,41.10287 -4.32348,56.85036 l -7.21823,4.0164 -4.09489,9.9836 c -13.93378,33.97142 -24.23415,49.01996 -58.75181,85.83466 -18.71774,19.96335 -18.80191,20.12204 -8.3681,15.77844 11.82021,-4.92077 39.27631,-13.7244 63.15645,-20.25072 118.13935,-32.28693 169.6185,-66.2022 204.134,-134.48669 17.4388,-34.50037 16.5488,-47.06005 -4.6307,-65.35121 -30.1404,-26.03001 -34.7107,-53.16279 -13.7465,-81.60994 31.517,-42.76659 99.8399,-19.48792 99.7284,33.97901 -0.038,18.17077 -4.5954,27.10647 -24.0179,47.09004 -16.6713,17.15301 -18.6649,20.17962 -23.8995,36.28377 -23.0152,70.80505 -57.4135,116.33921 -112.06533,148.34482 -27.6077,16.16782 -44.4845,22.90613 -116.00247,46.3157 -62.6714,20.51387 -84.90551,31.88769 -119.6592,61.21147 C 668.31333,769.36713 627.98691,867.85875 633.06814,961 c 1.77954,32.61987 6.89549,45.2911 26.849,66.5 47.37749,50.3582 8.9681,131.8827 -56.91714,120.8074 z" />
  </g>
</svg>
